#!OML:ASF Y:\EmotionMaleHayes\Project 1\Capture day 1\Session 1\Male1.ASF
:FULLY-SPECIFIED
:DEGREES
377
root 11.6432 16.4464 -1.3561 175.857 31.8825 166.95
lowerback 21.0887 5.05071 -6.58015
upperback 6.76603 6.32215 -5.8515
thorax -4.26188 3.70258 -4.17439
lowerneck -16.0766 -12.3344 -7.92009
upperneck 18.728 -14.2034 -1.80874
head 8.94835 -7.34037 -1.15553
rclavicle -5.66723e-014 1.03989e-014
rhumerus -17.523 29.6355 -39.8063
rradius 72.3292
rwrist -6.2428
rhand -25.1018 -18.7032
rfingers 7.12502
rthumb 1.41327 -48.6783
lclavicle -5.66723e-014 1.03989e-014
lhumerus -46.5787 -6.52751 46.5106
lradius 30.3072
lwrist -17.2231
lhand -25.4958 -16.7821
lfingers 7.12502
lthumb 1.03267 13.1952
rfemur -7.93157 -4.59606 28.9288
rtibia 31.587
rfoot -206.033 -192.66
rtoes 25.9918
lfemur -43.0718 21.4079 -0.247778
ltibia 78.5503
lfoot -11.0158 1.95368
ltoes -25.3406
378
root 11.9744 16.6018 -1.35209 176.805 32.2377 167.69
lowerback 20.5262 5.45427 -5.95084
upperback 6.66433 7.0256 -6.26573
thorax -3.94943 4.06293 -5.08021
lowerneck -15.6165 -12.6039 -7.99427
upperneck 18.8459 -14.5873 -1.80217
head 8.92555 -7.52647 -1.1715
rclavicle -3.08613e-014 -9.34288e-015
rhumerus -14.9214 31.8578 -37.2297
rradius 71.6896
rwrist -5.28306
rhand -24.5817 -19.3798
rfingers 7.12502
rthumb 1.91552 -49.351
lclavicle -3.08613e-014 -9.34288e-015
lhumerus -48.5733 -7.99223 45.6017
lradius 29.5593
lwrist -19.1187
lhand -22.8882 -18.705
lfingers 7.12502
lthumb 3.55108 11.2452
rfemur -5.71221 -5.75222 29.7308
rtibia 27.8008
rfoot -203.229 -189.494
rtoes 26.0365
lfemur -45.7342 21.9947 -3.89459
ltibia 77.7636
lfoot -11.663 3.02838
ltoes -25.2295
379
root 12.3107 16.7633 -1.35501 178.296 32.7021 169.247
lowerback 19.8535 5.84175 -4.55014
upperback 6.4726 7.82093 -6.59678
thorax -3.56779 4.46205 -6.3159
lowerneck -15.3333 -12.9117 -7.98055
upperneck 19.2597 -15.0276 -1.80003
head 9.02989 -7.73207 -1.23299
rclavicle -2.5842e-015 5.12864e-014
rhumerus -12.4174 33.4309 -34.8157
rradius 70.6149
rwrist -3.50626
rhand -23.8135 -17.9201
rfingers 7.12502
rthumb 2.65752 -47.8833
lclavicle -2.5842e-015 5.12864e-014
lhumerus -50.4265 -9.24428 44.5505
lradius 28.8034
lwrist -20.7714
lhand -20.3692 -19.7479
lfingers 7.12502
lthumb 5.98336 10.1476
rfemur -3.5082 -6.69695 31.2113
rtibia 23.8775
rfoot -199.918 -185.579
rtoes 26.3578
lfemur -48.2504 22.5262 -6.78634
ltibia 76.6781
lfoot -12.0043 3.63809
ltoes -25.1572
380
root 12.6302 16.9192 -1.36539 180.03 33.1186 170.885
lowerback 19.1406 6.15288 -2.89158
upperback 6.10642 8.51726 -7.03043
thorax -3.25744 4.81236 -7.7764
lowerneck -15.463 -13.1444 -7.50058
upperneck 20.2539 -15.3242 -2.2469
head 9.32682 -7.87645 -1.53604
rclavicle 4.55217e-014 -5.40694e-014
rhumerus -10.0104 35.3822 -32.5552
rradius 70.0617
rwrist -2.74245
rhand -23.2982 -16.0149
rfingers 7.12502
rthumb 3.15509 -45.9713
lclavicle 4.55217e-014 -5.40694e-014
lhumerus -52.0758 -10.2363 43.2474
lradius 27.5365
lwrist -22.6931
lhand -18.541 -20.6464
lfingers 7.12502
lthumb 7.74823 9.19169
rfemur -1.70813 -7.73657 32.5495
rtibia 20.2158
rfoot -196.392 -181.551
rtoes 25.4113
lfemur -50.9004 22.7712 -9.84055
ltibia 75.3475
lfoot -12.0981 4.24229
ltoes -27.0882
381
root 12.9638 17.0699 -1.3748 181.473 33.493 172.335
lowerback 18.5328 6.51146 -1.66153
upperback 5.78181 9.19478 -7.37836
thorax -2.97625 5.1566 -8.90191
lowerneck -15.4346 -13.3426 -7.92092
upperneck 21.2621 -15.5841 -1.79101
head 9.76263 -7.96656 -1.41761
rclavicle 1.94809e-014 -1.39149e-014
rhumerus -7.54008 37.1022 -30.2591
rradius 69.2633
rwrist -2.49441
rhand -23.2827 -15.7792
rfingers 7.12502
rthumb 3.17011 -45.7354
lclavicle 1.94809e-014 -1.39149e-014
lhumerus -54.0956 -11.9439 43.1132
lradius 26.5611
lwrist -22.2458
lhand -17.6833 -20.0711
lfingers 7.12502
lthumb 8.57595 9.73473
rfemur 0.155521 -9.22256 33.4636
rtibia 17.0402
rfoot -193.103 -177.54
rtoes 23.946
lfemur -52.893 22.8413 -12.8468
ltibia 73.5207
lfoot -11.978 4.20414
ltoes -29.2497
382
root 13.2951 17.2154 -1.39322 182.856 33.6901 173.721
lowerback 17.8461 6.83926 -0.36988
upperback 5.49 9.8492 -7.72657
thorax -2.56848 5.50251 -10.0257
lowerneck -15.2031 -13.6665 -8.65206
upperneck 22.2149 -16.0644 -0.966208
head 10.2215 -8.13964 -1.1537
rclavicle -9.08446e-014 8.07066e-014
rhumerus -5.02902 38.9357 -27.6824
rradius 68.7786
rwrist -3.00197
rhand -23.5802 -16.7426
rfingers 7.12502
rthumb 2.88279 -46.7029
lclavicle -9.08446e-014 8.07066e-014
lhumerus -56.2908 -13.5689 43.138
lradius 25.9033
lwrist -20.9837
lhand -17.1285 -20.1257
lfingers 7.12502
lthumb 9.11133 9.65754
rfemur 1.98715 -11.1675 34.0267
rtibia 14.1871
rfoot -189.808 -173.049
rtoes 25.2306
lfemur -54.5346 22.585 -15.8219
ltibia 71.3544
lfoot -11.6237 3.36785
ltoes -29.7752
383
root 13.6116 17.3566 -1.41893 184.044 33.7439 174.615
lowerback 17.2186 7.10335 0.76851
upperback 5.12045 10.3825 -8.20007
thorax -2.25566 5.79356 -11.193
lowerneck -15.1506 -13.9064 -8.33457
upperneck 23.2262 -16.3194 -1.45239
head 10.5136 -8.26727 -1.43786
rclavicle 5.36719e-014 -6.83819e-014
rhumerus -2.58831 40.7667 -25.0274
rradius 68.6078
rwrist -4.25409
rhand -23.8672 -18.5678
rfingers 7.12502
rthumb 2.60562 -48.5316
lclavicle 5.36719e-014 -6.83819e-014
lhumerus -58.1836 -13.8027 42.5047
lradius 24.9248
lwrist -20.3406
lhand -17.0196 -20.298
lfingers 7.12502
lthumb 9.21639 9.48061
rfemur 3.6794 -13.3721 33.9368
rtibia 11.6503
rfoot -186.717 -168.162
rtoes 19.4185
lfemur -55.8481 21.7773 -19.2397
ltibia 68.7431
lfoot -10.9454 2.0862
ltoes -30.4299
384
root 13.9393 17.4866 -1.43992 185.024 33.8333 175.518
lowerback 16.8838 7.37595 1.84994
upperback 4.7308 10.9043 -8.62108
thorax -2.10699 6.07297 -12.3229
lowerneck -15.0832 -14.1262 -8.11589
upperneck 24.1842 -16.5131 -1.93834
head 10.7929 -8.37255 -1.69944
rclavicle -3.85642e-014 -6.67916e-014
rhumerus -0.21203 42.2696 -22.2509
rradius 68.2355
rwrist -5.85175
rhand -24.2733 -17.6769
rfingers 7.12502
rthumb 2.21338 -47.6452
lclavicle -3.85642e-014 -6.67916e-014
lhumerus -61.0517 -15.94 43.506
lradius 24.8565
lwrist -16.7055
lhand -17.2217 -19.6681
lfingers 7.12502
lthumb 9.02144 10.119
rfemur 5.45408 -15.2371 33.8573
rtibia 9.79626
rfoot -184.203 -164.195
rtoes 20.1651
lfemur -56.4387 20.9113 -22.2443
ltibia 65.8107
lfoot -10.0434 0.320445
ltoes -29.7972
385
root 14.2807 17.5996 -1.45807 186.117 33.7949 176.736
lowerback 16.3698 7.68567 2.71203
upperback 4.41808 11.4149 -8.70646
thorax -1.87487 6.32662 -12.8956
lowerneck -14.9445 -14.379 -8.30453
upperneck 24.9452 -16.7449 -2.09517
head 11.0632 -8.49331 -1.79333
rclavicle 4.05521e-014 -4.77083e-015
rhumerus 2.54138 43.7338 -18.8242
rradius 68.1009
rwrist -7.60611
rhand -24.6213 -17.159
rfingers 7.12502
rthumb 1.87732 -47.1305
lclavicle 4.05521e-014 -4.77083e-015
lhumerus -64.0722 -17.2221 44.4582
lradius 24.9123
lwrist -13.4328
lhand -17.583 -18.8905
lfingers 7.12502
lthumb 8.6728 10.9113
rfemur 7.05264 -16.1982 34.3725
rtibia 8.8088
rfoot -183.096 -162.819
rtoes 27.0473
lfemur -56.8149 20.2613 -24.7897
ltibia 62.8626
lfoot -8.63834 -1.80284
ltoes -28.2395
386
root 14.6209 17.699 -1.47854 187.387 33.5367 178.113
lowerback 15.7833 7.78901 3.92066
upperback 4.06318 11.7146 -8.98667
thorax -1.56784 6.49576 -13.8468
lowerneck -15.0262 -14.5013 -7.88654
upperneck 25.6166 -16.9474 -2.31728
head 11.2701 -8.56171 -1.99492
rclavicle 9.97899e-014 -5.00937e-014
rhumerus 5.47589 44.7166 -15.9448
rradius 67.7417
rwrist -8.78217
rhand -24.7612 -17.1239
rfingers 7.12502
rthumb 1.74225 -47.0965
lclavicle 9.97899e-014 -5.00937e-014
lhumerus -66.805 -17.9539 44.7498
lradius 24.9285
lwrist -10.4976
lhand -17.9025 -18.3972
lfingers 7.12502
lthumb 8.36445 11.4172
rfemur 8.30074 -16.3528 35.4271
rtibia 8.59606
rfoot -184.334 -164.369
rtoes 27.4857
lfemur -57.1798 19.5082 -27.1374
ltibia 59.9606
lfoot -6.6492 -4.19532
ltoes -26.1292
387
root 14.893 17.7676 -1.51383 189.289 33.178 179.378
lowerback 14.5765 7.75901 5.78023
upperback 3.59655 11.8973 -9.42059
thorax -0.892228 6.63516 -15.2249
lowerneck -15.1839 -14.5888 -7.61355
upperneck 26.119 -17.1151 -2.38036
head 11.4587 -8.60992 -2.11809
rclavicle -7.95139e-015 -5.56597e-015
rhumerus 8.38719 45.1843 -13.0965
rradius 67.5495
rwrist -9.38005
rhand -24.4565 -16.9087
rfingers 7.12502
rthumb 2.0365 -46.8787
lclavicle -7.95139e-015 -5.56597e-015
lhumerus -69.6537 -18.5079 45.414
lradius 25.0511
lwrist -7.86683
lhand -18.34 -18.1147
lfingers 7.12502
lthumb 7.94224 11.7161
rfemur 7.44086 -16.6163 36.3132
rtibia 11.0409
rfoot -186.699 -167.311
rtoes 22.0243
lfemur -58.4635 17.7278 -29.8301
ltibia 57.2401
lfoot -4.28812 -6.27244
ltoes -24.7282
388
root 15.2898 17.8424 -1.53788 189.14 33.3182 180.34
lowerback 14.639 8.13222 5.71276
upperback 3.73063 12.4148 -9.2443
thorax -0.683925 6.91748 -14.9999
lowerneck -15.1136 -13.3566 -8.04257
upperneck 26.2532 -18.0583 -2.0821
head 11.5665 -9.43837 -2.16868
rclavicle 2.78299e-014 -7.4743e-014
rhumerus 10.9513 45.1446 -10.2199
rradius 67.8799
rwrist -9.62086
rhand -23.732 -16.528
rfingers 7.12502
rthumb 2.73618 -46.4902
lclavicle 2.78299e-014 -7.4743e-014
lhumerus -72.0545 -18.1097 45.5236
lradius 24.9772
lwrist -7.04092
lhand -18.828 -18.0148
lfingers 7.12502
lthumb 7.47118 11.8333
rfemur 9.6749 -15.1541 37.054
rtibia 12.3288
rfoot -188.805 -172.9
rtoes 18.2817
lfemur -56.9111 18.5438 -31.9354
ltibia 53.5592
lfoot -1.15556 -9.4025
ltoes -27.6135
389
root 15.6254 17.8892 -1.56818 189.393 33.5119 181.333
lowerback 14.4422 8.50446 6.25281
upperback 3.79625 12.9926 -9.07765
thorax -0.256534 7.24457 -15.0794
lowerneck -14.9252 -13.5398 -8.09848
upperneck 26.1538 -18.253 -2.29315
head 11.4807 -9.55571 -2.23923
rclavicle 9.22361e-014 1.35174e-014
rhumerus 13.045 44.6799 -7.67856
rradius 68.1749
rwrist -9.2865
rhand -23.1868 -16.0848
rfingers 7.12502
rthumb 3.26266 -46.0396
lclavicle 9.22361e-014 1.35174e-014
lhumerus -73.8509 -17.3418 45.2305
lradius 24.5836
lwrist -7.22027
lhand -19.4875 -18.0944
lfingers 7.12502
lthumb 6.83453 11.7753
rfemur 11.004 -14.6061 37.3152
rtibia 14.6668
rfoot -189.766 -176.799
rtoes 18.0664
lfemur -55.3526 17.8855 -32.9171
ltibia 50.6476
lfoot 3.28645 -11.2617
ltoes -11.629
